PathFileType	4	(X/Y/Z)	c:/Users/goper/Files/vsCode/490R/osim_files/A01/A01_Fast_06.trc
DataRate	CameraRate	NumFrames	NumMarkers	Units                	OrigDataRate	OrigDataStartFrame	OrigNumFrames
120.00	120.00	4	36	mm	120.0	1070	1222
                Frame#	Time	Mobility_markerset:LPSIS			Mobility_markerset:LASIS			Mobility_markerset:LTH1			Mobility_markerset:LTH2			Mobility_markerset:LTH3			Mobility_markerset:LTH4			Mobility_markerset:LLFE			Mobility_markerset:LMFE			Mobility_markerset:LSH1			Mobility_markerset:LSH2			Mobility_markerset:LSH3			Mobility_markerset:LSH4			Mobility_markerset:LLMAL			Mobility_markerset:LMMAL			Mobility_markerset:LCAL			Mobility_markerset:LMTP5			Mobility_markerset:LTOE			Mobility_markerset:LMTP1			Mobility_markerset:RPSIS			Mobility_markerset:RASIS			Mobility_markerset:RTH1			Mobility_markerset:RTH2			Mobility_markerset:RTH3			Mobility_markerset:RTH4			Mobility_markerset:RLFE			Mobility_markerset:RMFE			Mobility_markerset:RSH1			Mobility_markerset:RSH2			Mobility_markerset:RSH3			Mobility_markerset:RSH4			Mobility_markerset:RLMAL			Mobility_markerset:RMMAL			Mobility_markerset:RCAL			Mobility_markerset:RMTP1			Mobility_markerset:RTOE			Mobility_markerset:RMTP5		
		X1	Y1	Z1	X2	Y2	Z2	X3	Y3	Z3	X4	Y4	Z4	X5	Y5	Z5	X6	Y6	Z6	X7	Y7	Z7	X8	Y8	Z8	X9	Y9	Z9	X10	Y10	Z10	X11	Y11	Z11	X12	Y12	Z12	X13	Y13	Z13	X14	Y14	Z14	X15	Y15	Z15	X16	Y16	Z16	X17	Y17	Z17	X18	Y18	Z18	X19	Y19	Z19	X20	Y20	Z20	X21	Y21	Z21	X22	Y22	Z22	X23	Y23	Z23	X24	Y24	Z24	X25	Y25	Z25	X26	Y26	Z26	X27	Y27	Z27	X28	Y28	Z28	X29	Y29	Z29	X30	Y30	Z30	X31	Y31	Z31	X32	Y32	Z32	X33	Y33	Z33	X34	Y34	Z34	X35	Y35	Z35	X36	Y36	Z36

1070	8.90833	-4589.61621	1072.99463	303.52234	-4484.66455	1024.84619	527.04956	0.00000	0.00000	0.00000	-1325.64441	1331.54785	3123.70923	0.00000	0.00000	0.00000	0.00000	0.00000	0.00000	0.00000	0.00000	0.00000	-4497.83691	528.92462	566.87317	0.00000	0.00000	0.00000	0.00000	0.00000	0.00000	-4319.51562	388.48712	491.69928	0.00000	0.00000	0.00000	-4279.91650	129.80475	397.35147	-4361.41406	104.97279	408.81476	-4334.23047	101.38033	325.43112	-4209.16406	68.51952	513.41565	-4269.47754	69.80720	561.39539	-4302.61816	50.91239	550.60706	-4689.53174	1073.20972	313.92349	0.00000	0.00000	0.00000	-4847.33594	699.22003	407.33667	-4845.87939	655.71783	413.72861	-4844.42676	699.89484	470.66678	-4846.22266	657.85101	465.87350	-4813.84863	513.18103	457.33447	0.00000	0.00000	0.00000	-4853.22412	323.60938	354.74316	-4856.33740	278.58887	354.41284	-4847.54248	317.37451	414.84247	-4850.70312	272.42990	407.50974	-4835.43750	90.16728	367.23163	0.00000	0.00000	0.00000	-4802.85400	63.21422	306.41916	0.00000	0.00000	0.00000	0.00000	0.00000	0.00000	-4808.16211	28.38658	507.14053
1071	8.91667	-4594.66309	1073.55518	302.09973	-4487.27930	1025.56689	524.37683	0.00000	0.00000	0.00000	-1325.48486	1331.59790	3124.31689	0.00000	0.00000	0.00000	0.00000	0.00000	0.00000	0.00000	0.00000	0.00000	-4499.66650	530.62494	568.22186	0.00000	0.00000	0.00000	0.00000	0.00000	0.00000	-4322.84180	389.56250	491.31082	0.00000	0.00000	0.00000	-4285.39258	130.03061	396.46002	-4367.10791	105.67635	408.74997	-4340.90234	101.98168	325.13541	-4213.95996	68.72783	511.59094	-4273.62158	70.01425	560.09180	-4306.83691	51.03392	549.75378	-4694.62744	1073.56360	313.34094	0.00000	0.00000	0.00000	-4849.79932	699.03088	406.99185	-4848.16357	655.51239	413.36337	-4846.83984	699.64038	470.31348	-4848.50830	657.64056	465.50491	-4815.56787	513.10712	457.18735	0.00000	0.00000	0.00000	-4854.41699	323.29312	354.77783	-4857.30762	278.21524	354.50519	-4848.52734	317.12503	414.87729	-4851.44189	272.11453	407.56622	-4835.52197	89.96671	367.25119	0.00000	0.00000	0.00000	-4802.87793	63.15326	306.36798	0.00000	0.00000	0.00000	0.00000	0.00000	0.00000	-4808.05078	28.44441	507.11734
1072	8.92500	-4599.68018	1074.05872	300.75339	-4489.72607	1026.36731	520.90991	0.00000	0.00000	0.00000	-1325.46313	1331.77173	3124.79248	0.00000	0.00000	0.00000	0.00000	0.00000	0.00000	0.00000	0.00000	0.00000	-4501.58936	532.45325	568.84363	-4649.09570	-23.99500	536.78979	0.00000	0.00000	0.00000	0.00000	0.00000	0.00000	0.00000	0.00000	0.00000	-4291.18994	130.41043	395.66440	-4372.92529	106.75219	408.14749	-4346.95557	103.02021	324.43094	-4219.72949	68.48554	510.38379	-4279.41992	70.00491	559.02643	-4312.67480	51.11285	548.74109	-4699.67822	1073.89087	312.79321	0.00000	0.00000	0.00000	-4852.19922	698.78979	406.78741	-4850.40234	655.26050	413.15070	-4849.08496	699.38586	470.10999	-4850.66650	657.38092	465.27512	-4817.18701	512.98840	457.01654	0.00000	0.00000	0.00000	-4855.54102	322.93860	354.79230	-4858.21436	277.84921	354.55560	-4849.42139	316.84280	414.91266	-4852.17969	271.79657	407.60696	-4835.58789	89.75872	367.27698	0.00000	0.00000	0.00000	-4802.89600	63.07267	306.29517	0.00000	0.00000	0.00000	0.00000	0.00000	0.00000	-4807.98877	28.55565	507.08389
1073	8.93333	-4604.66943	1074.58301	299.43091	-4492.04980	1027.18103	519.27887	0.00000	0.00000	0.00000	-1325.28894	1331.81323	3125.34814	0.00000	0.00000	0.00000	0.00000	0.00000	0.00000	0.00000	0.00000	0.00000	-4503.69287	534.36395	568.87653	0.00000	0.00000	0.00000	0.00000	0.00000	0.00000	0.00000	0.00000	0.00000	0.00000	0.00000	0.00000	-4296.79736	131.16713	394.85123	-4378.85693	108.04961	407.05872	-4352.58447	104.47482	323.43210	-4226.18604	67.73138	509.56085	-4286.28125	69.71878	558.08197	-4319.61914	51.09078	547.61188	-4704.62695	1074.16821	312.29794	0.00000	0.00000	0.00000	-4854.58154	698.52686	406.73679	-4852.58057	654.99182	413.08859	-4851.23096	699.09851	470.06281	-4852.62891	657.08392	465.22870	-4818.72949	512.86725	456.81552	0.00000	0.00000	0.00000	-4856.60742	322.62256	354.82288	-4859.09619	277.50412	354.60648	-4850.20850	316.50436	414.91959	-4852.83105	271.47278	407.64819	-4835.66406	89.60599	367.28149	0.00000	0.00000	0.00000	-4802.87354	62.98556	306.22748	0.00000	0.00000	0.00000	0.00000	0.00000	0.00000	-4807.90283	28.68973	507.01334
